<svg width="34" height="17" viewBox="0 0 34 17" fill="none" xmlns="http://www.w3.org/2000/svg">
<path d="M32.6719 9.56252L4.545 9.56252L9.20433 14.1993C9.72422 14.7167 9.72622 15.5576 9.20878 16.0775C8.69134 16.5974 7.85037 16.5994 7.33048 16.082L0.39076 9.17577C0.390295 9.17537 0.389963 9.1749 0.389564 9.17451C-0.129002 8.65707 -0.130662 7.81345 0.389431 7.29428C0.389896 7.29388 0.390228 7.29342 0.390627 7.29302L7.33035 0.386784C7.85017 -0.130519 8.69114 -0.128727 9.20865 0.391299C9.72608 0.911193 9.72409 1.75209 9.2042 2.26953L4.545 6.90627L32.6719 6.90627C33.4054 6.90627 34 7.50087 34 8.23439C34 8.96792 33.4054 9.56252 32.6719 9.56252Z" fill="#E1E1E1"/>
</svg>
